<svg width="21" height="19" viewBox="0 0 21 19" fill="none" xmlns="http://www.w3.org/2000/svg">
<path d="M1.30556 18.125H13.6944C13.9249 18.125 14.125 17.9473 14.125 17.7125V12.4024C14.125 12.1676 13.9249 11.9899 13.6944 11.9899C13.464 11.9899 13.2639 12.1676 13.2639 12.4024V17.3001H1.73612V6.28747C1.73612 6.05265 1.53599 5.875 1.30556 5.875C1.07513 5.875 0.875 6.05265 0.875 6.28747V17.7125C0.875 17.9473 1.07513 18.125 1.30556 18.125Z" fill="black" stroke="black" stroke-width="0.25"/>
<path d="M13.2983 7.68569C13.2983 7.91788 13.4735 8.125 13.7117 8.125C13.9498 8.125 14.125 7.91788 14.125 7.68569V1.31431C14.125 1.08212 13.9498 0.875 13.7117 0.875H6.28834C6.05018 0.875 5.875 1.08212 5.875 1.31431C5.875 1.54651 6.05018 1.75362 6.28834 1.75362H13.2983V7.68569Z" fill="black" stroke="black" stroke-width="0.25"/>
<path d="M5.40347 0.998819L5.40357 0.998716C5.52443 0.878139 5.70621 0.841637 5.86415 0.907206C5.86418 0.907216 5.8642 0.907226 5.86423 0.907236L5.81628 1.02267L5.40347 0.998819ZM5.40347 0.998819L0.998824 5.40349L5.40347 0.998819ZM5.27965 2.31802V5.27967H2.31805L5.27965 2.31802Z" fill="black" stroke="black" stroke-width="0.25"/>
<path d="M6.06501 14.4413L6.06496 14.4412L5.76403 14.0156C5.76403 14.0156 5.76402 14.0155 5.76401 14.0155C5.66716 13.8786 5.51131 13.7793 5.32031 13.741L5.34489 13.6184M6.06501 14.4413L3.59262 14.4722L4.77267 13.822L4.77285 13.8219C4.93508 13.7321 5.12935 13.7028 5.32041 13.741L5.34489 13.6184M6.06501 14.4413C6.37924 14.8851 6.91742 15.125 7.46413 15.125M6.06501 14.4413L7.46413 15.125M5.34489 13.6184C5.126 13.5747 4.90148 13.6079 4.71235 13.7125L5.86608 13.9434C5.74886 13.7777 5.56378 13.6623 5.34489 13.6184ZM7.81644 14.1951L7.81653 14.1951L9.43008 13.4134L7.81644 14.1951ZM7.81644 14.1951C7.47569 14.3605 7.05477 14.259 6.85969 13.9836L7.81644 14.1951ZM7.46413 15.125C7.73449 15.125 8.00933 15.0665 8.26366 14.9431L7.46413 15.125ZM6.85965 13.9835L6.55875 13.5581L6.85965 13.9835Z" fill="black" stroke="black" stroke-width="0.25"/>
<path d="M10.8786 13.6374C10.858 13.7963 10.9268 13.954 11.0575 14.0463L11.0577 14.0464L14.3478 12.6019L14.2906 12.4907L14.3481 12.6017L14.3479 12.6018C14.4101 12.5697 14.4632 12.5229 14.503 12.4661L14.5031 12.4659L19.7766 4.90945C20.0705 4.48834 20.184 3.97659 20.0959 3.47003L20.0959 3.46999C20.0076 2.96324 19.7282 2.52058 19.3093 2.22469C18.4441 1.6131 17.2457 1.82484 16.6388 2.69462C16.6388 2.69462 16.6388 2.69463 16.6388 2.69463L11.3654 10.2511L11.3653 10.2512C11.3254 10.3085 11.3 10.3745 11.2911 10.4435L11.2911 10.4435L10.8786 13.6374ZM10.8786 13.6374L11.0026 13.6535L10.8786 13.6375L10.8786 13.6374ZM18.8145 2.93121C19.0458 3.09447 19.1999 3.33831 19.2484 3.61849L19.2484 3.61855C19.2972 3.89902 19.2347 4.18088 19.0723 4.4135L19.0723 4.41351L13.8596 11.883L11.8371 12.9313L12.1303 10.66L17.3431 3.19054L17.3431 3.19054C17.6779 2.71074 18.3381 2.59486 18.8145 2.93121ZM18.8145 2.93121L18.8866 2.82909M18.8145 2.93121L18.8866 2.82909M18.8866 2.82909C18.3534 2.45267 17.615 2.58254 17.2406 3.11901L19.1748 4.48505C19.3561 4.22531 19.426 3.91002 19.3716 3.59713C19.3174 3.28444 19.145 3.01151 18.8866 2.82909ZM11.5026 14.0766L11.4447 13.9658L11.5022 14.0768L11.5024 14.0767C11.5025 14.0766 11.5026 14.0766 11.5026 14.0766Z" fill="black" stroke="black" stroke-width="0.25"/>
<path d="M15.9446 3.10851L15.9446 3.10851L15.9445 3.1087C15.883 3.22362 15.8643 3.35669 15.8806 3.4792C15.8969 3.60119 15.9494 3.72316 16.0432 3.80954C16.0432 3.80955 16.0432 3.80955 16.0432 3.80956L18.4417 6.02018C18.5155 6.08831 18.6055 6.125 18.6991 6.125C18.8488 6.125 18.9799 6.03236 19.0555 5.89122L19.0555 5.89113C19.117 5.77621 19.1357 5.64315 19.1194 5.52064C19.1031 5.39864 19.0506 5.27666 18.9568 5.19028L16.5583 2.97963L16.5583 2.97961C16.4622 2.89106 16.3398 2.85682 16.221 2.88416C16.1042 2.91102 16.0063 2.99352 15.9446 3.10851Z" fill="black" stroke="black" stroke-width="0.25"/>
</svg>
