<svg width="20" height="16" viewBox="0 0 20 16" fill="none" xmlns="http://www.w3.org/2000/svg">
<path d="M16.8521 4.36364H16.2909V0H3.49091V4.36364H2.92974C1.31433 4.36364 0 5.67767 0 7.29338V13.0703C0 14.6857 1.31433 16 2.92974 16H16.8518C18.4675 16 19.7818 14.6857 19.7818 13.0703V7.29338C19.7818 5.67767 18.4675 4.36364 16.8521 4.36364ZM4.94545 1.45455H14.8364V6.98182H4.94545V1.45455ZM18.3273 13.0703C18.3273 13.8816 17.6634 14.5452 16.8521 14.5452H2.92974C2.1184 14.5455 1.45455 13.8816 1.45455 13.0703V7.29338C1.45455 6.48204 2.1184 5.81818 2.92974 5.81818H3.49091V8.43636H16.2909V5.81818H16.8521C17.6634 5.81818 18.3273 6.48204 18.3273 7.29338V13.0703Z" fill="black"/>
</svg>
