<svg width="24" height="24" viewBox="0 0 24 24" fill="none" xmlns="http://www.w3.org/2000/svg">
<path d="M2.40002 7.19999C2.40002 6.56347 2.65288 5.95302 3.10297 5.50293C3.55306 5.05284 4.1635 4.79999 4.80002 4.79999H19.2C19.8365 4.79999 20.447 5.05284 20.8971 5.50293C21.3472 5.95302 21.6 6.56347 21.6 7.19999V16.8C21.6 17.4365 21.3472 18.047 20.8971 18.497C20.447 18.9471 19.8365 19.2 19.2 19.2H4.80002C4.1635 19.2 3.55306 18.9471 3.10297 18.497C2.65288 18.047 2.40002 17.4365 2.40002 16.8V7.19999ZM4.80002 5.99999C4.48176 5.99999 4.17654 6.12642 3.9515 6.35146C3.72645 6.5765 3.60002 6.88173 3.60002 7.19999V7.45999L12 12.5L20.4 7.45999V7.19999C20.4 6.88173 20.2736 6.5765 20.0486 6.35146C19.8235 6.12642 19.5183 5.99999 19.2 5.99999H4.80002ZM20.4 8.85999L14.75 12.25L20.4 15.726V8.85999ZM20.36 17.11L13.592 12.945L12 13.9L10.41 12.946L3.64002 17.11C3.70833 17.3654 3.85907 17.5911 4.06883 17.7521C4.27859 17.913 4.53563 18.0001 4.80002 18H19.2C19.464 18 19.7206 17.9131 19.9301 17.7525C20.1396 17.592 20.2904 17.3669 20.359 17.112L20.36 17.11ZM3.60002 15.727L9.25002 12.25L3.60002 8.85999V15.727Z" fill="black"/>
</svg>
