<!DOCTYPE svg PUBLIC "-//W3C//DTD SVG 1.1//EN" "http://www.w3.org/Graphics/SVG/1.1/DTD/svg11.dtd">
<!-- Uploaded to: SVG Repo, www.svgrepo.com, Transformed by: SVG Repo Mixer Tools -->
<svg fill="#AAAAAA" version="1.1" id="Capa_1" xmlns="http://www.w3.org/2000/svg" xmlns:xlink="http://www.w3.org/1999/xlink" width="800px" height="800px" viewBox="0 0 409.449 409.449" xml:space="preserve">
<g id="SVGRepo_bgCarrier" stroke-width="0"/>
<g id="SVGRepo_tracerCarrier" stroke-linecap="round" stroke-linejoin="round"/>
<g id="SVGRepo_iconCarrier"> <g> <path d="M335.413,0H74.046C66.422,0,60.25,6.186,60.25,13.799v55.617c0,1.597,0.324,3.11,0.829,4.536 c0.057,0.142,0.081,0.315,0.141,0.469c0.543,1.384,1.324,2.63,2.246,3.744c0.093,0.111,0.117,0.24,0.201,0.351l61.921,70.626 V395.65c0,7.626,6.179,13.799,13.796,13.799h130.691c7.608,0,13.793-6.173,13.793-13.799V149.142l61.921-70.626 c0.085-0.111,0.114-0.24,0.199-0.351c0.918-1.12,1.711-2.366,2.245-3.744c0.066-0.153,0.09-0.327,0.139-0.469 c0.504-1.426,0.828-2.945,0.828-4.536V13.799C349.212,6.186,343.039,0,335.413,0z M218.523,267.622 c0,7.607-6.172,13.799-13.793,13.799c-7.625,0-13.798-6.191-13.798-13.799v-62.895c0-7.611,6.173-13.799,13.798-13.799 c7.621,0,13.793,6.188,13.793,13.799V267.622z M321.614,55.617H87.845V27.595h233.77V55.617z"/> </g> </g>
</svg>