<svg width="17" height="17" viewBox="0 0 17 17" fill="none" xmlns="http://www.w3.org/2000/svg">
<path d="M6.41788 0H1.47498C0.66037 0 0 0.66037 0 1.47498V6.41788C0 7.23249 0.66037 7.89286 1.47498 7.89286H6.41788C7.23249 7.89286 7.89286 7.23249 7.89286 6.41788V1.47498C7.89286 0.66037 7.23249 0 6.41788 0Z" fill="#060606"/>
<path d="M15.525 0H10.5821C9.76749 0 9.10712 0.66037 9.10712 1.47498V6.41788C9.10712 7.23249 9.76749 7.89286 10.5821 7.89286H15.525C16.3396 7.89286 17 7.23249 17 6.41788V1.47498C17 0.66037 16.3396 0 15.525 0Z" fill="#060606"/>
<path d="M6.41788 9.10715H1.47498C0.66037 9.10715 0 9.76752 0 10.5821V15.525C0 16.3396 0.66037 17 1.47498 17H6.41788C7.23249 17 7.89286 16.3396 7.89286 15.525V10.5821C7.89286 9.76752 7.23249 9.10715 6.41788 9.10715Z" fill="#060606"/>
<path d="M15.525 9.10715H10.5821C9.76749 9.10715 9.10712 9.76752 9.10712 10.5821V15.525C9.10712 16.3396 9.76749 17 10.5821 17H15.525C16.3396 17 17 16.3396 17 15.525V10.5821C17 9.76752 16.3396 9.10715 15.525 9.10715Z" fill="#060606"/>
</svg>
