<?xml version="1.0" encoding="UTF-8"?>
<svg xmlns="http://www.w3.org/2000/svg" xmlns:xlink="http://www.w3.org/1999/xlink" width="30px" height="30px" viewBox="0 0 30 30" version="1.1">
<g id="surface1">
<path style="fill-rule:nonzero;fill:rgb(100%,100%,100%);fill-opacity:1;stroke-width:1;stroke-linecap:butt;stroke-linejoin:miter;stroke:rgb(100%,100%,100%);stroke-opacity:1;stroke-miterlimit:4;" d="M 29 7 L 24.4 7 L 22 3 L 10 3 L 7.6 7 L 3 7 C 2 7 0 8 0 9.970833 L 0 26 C 0 27.658333 1.5 29 2.791667 29 L 29.0625 29 C 30.375 29 32 27.595833 32 26.033333 L 32 10 C 32 9 31 7 29 7 Z M 30 26.033333 C 30 26.425 29.3625 26.979167 29.0625 27 L 2.8 27 C 2.566667 26.983333 2 26.529167 2 26 L 2 9.970833 C 2 9.3375 2.85 9.016667 3 9 L 8.733333 9 L 11.133333 5 L 20.933333 5 L 22.720833 8.029167 L 23.270833 9 L 29 9 C 29.704167 9 29.991667 9.920833 30 10 Z M 16 10 C 12.133333 10 9 13.133333 9 17 C 9 20.866667 12.133333 24 16 24 C 19.866667 24 23 20.866667 23 17 C 23 13.133333 19.866667 10 16 10 Z M 16 22 C 13.241667 22 11 19.758333 11 17 C 11 14.241667 13.241667 12 16 12 C 18.758333 12 21 14.241667 21 17 C 21 19.758333 18.758333 22 16 22 Z M 16 22 " transform="matrix(0.9375,0,0,0.9375,0,0)"/>
</g>
</svg>
