<svg width="22" height="17" viewBox="0 0 22 17" fill="none" xmlns="http://www.w3.org/2000/svg">
<path d="M20.9374 5.21385L20.9344 5.22736C20.9274 5.2584 20.9218 5.28972 20.9175 5.32123L20.9157 5.33497L20.9108 5.34798L17.1538 15.457L17.1537 15.4574C17.0802 15.653 16.949 15.8217 16.7773 15.9409C16.6057 16.0602 16.4017 16.1244 16.1927 16.125L16.1923 16.125L1.90056 16.125H1.90021C1.72427 16.1245 1.55142 16.0787 1.39838 15.9919C1.24534 15.9051 1.11727 15.7804 1.02655 15.6297L1.0212 15.6208L1.02144 15.6207C1.02029 15.6187 1.01827 15.6152 1.01598 15.6107C0.924705 15.4562 0.87604 15.2802 0.875002 15.1007L0.874998 15.1L0.875 1.9V1.89986C0.875299 1.62812 0.983449 1.36761 1.1757 1.17548C1.36794 0.983352 1.62858 0.875298 1.90043 0.875L1.90056 0.875L11.2063 0.875C11.2064 0.875 11.2064 0.875 11.2064 0.875C11.2798 0.874972 11.352 0.893954 11.4159 0.9301C11.4798 0.966257 11.5332 1.01836 11.571 1.08133M20.9374 5.21385L11.4638 1.14562M20.9374 5.21385V5.2C20.9374 5.18968 20.9362 5.18096 20.9349 5.17448C20.9322 5.14749 20.9268 5.12083 20.9189 5.09487C20.9155 5.07658 20.9109 5.05851 20.9051 5.04079L20.9 5.02493L20.8909 5.01097C20.8687 4.97712 20.8457 4.9439 20.8217 4.91134L20.8119 4.89811L20.7991 4.88786C20.7835 4.87542 20.7671 4.86409 20.75 4.85394C20.7293 4.8383 20.7072 4.82463 20.684 4.81312C20.6783 4.80963 20.6705 4.80536 20.6608 4.8017L20.6476 4.79677L20.6337 4.79488C20.6021 4.79059 20.5706 4.78496 20.5395 4.77801L20.526 4.775H20.5122H19.7367M20.9374 5.21385L19.7367 4.775M11.571 1.08133L11.4638 1.14562M11.571 1.08133L11.5709 1.08127L11.4638 1.14562M11.571 1.08133L12.3477 2.375M11.4638 1.14562L12.277 2.5M12.3477 2.375H12.277V2.5M12.3477 2.375H18.7111H18.7112C18.9831 2.3753 19.2437 2.48335 19.436 2.67548L19.3476 2.76389M12.3477 2.375L12.3842 2.43565L12.277 2.5M12.277 2.5L19.3476 2.76389M19.3476 2.76389C19.1788 2.59517 18.9499 2.50026 18.7111 2.5L19.3476 2.76389ZM19.3476 2.76389L19.436 2.67548C19.6282 2.86761 19.7364 3.12812 19.7367 3.39986V3.4V4.775M19.3476 2.76389C19.5164 2.93262 19.6114 3.16139 19.6117 3.4M19.6117 3.4V4.775H19.7367M19.6117 3.4L20.6169 4.91875C20.5817 4.91398 20.5468 4.90773 20.5122 4.9H19.7367V4.775M19.6117 3.4L19.7367 4.775M10.9656 1.725L1.90068 1.725C1.85417 1.72504 1.8096 1.74352 1.77674 1.77636C1.74389 1.80919 1.72543 1.85367 1.72538 1.90006C1.72538 1.90008 1.72538 1.90009 1.72538 1.90011L1.72538 13.3357L4.80404 5.05203L4.80404 5.05202L4.92121 5.09557C4.94254 5.03816 4.98094 4.98865 5.03124 4.95369C5.08155 4.91873 5.14136 4.9 5.20263 4.9L10.9656 1.725ZM10.9656 1.725L11.7424 3.01867L10.9656 1.725ZM18.8863 3.40011V4.775L11.8496 2.95438C11.8762 2.99881 11.914 3.03558 11.9591 3.06111C12.0042 3.08663 12.0551 3.10003 12.107 3.1V3.225H12.107H18.711C18.7575 3.22504 18.8021 3.24352 18.8349 3.27636C18.8678 3.3092 18.8863 3.35371 18.8863 3.40011ZM16.3567 15.1607C16.3567 15.1607 16.3567 15.1608 16.3567 15.1608C16.3441 15.1942 16.3216 15.2231 16.2923 15.2435C16.2628 15.2639 16.2279 15.2749 16.192 15.275H1.91189L5.49825 5.625H19.9007L16.3567 15.1607Z" fill="black" stroke="black" stroke-width="0.25"/>
</svg>
